# xmcd
#
# Track frame offsets: 
#        150
#        24020
#        52272
#        73760
#        98932
#        120205
#        139471
#        156561
#        175858
#        197172
#        220347
#        244154
#        265808
#
# Disc length: 3875 seconds
#
# Revision: 0
# Processed by: cddbd v1.5.1PL2 Copyright (c) Steve Scherf et al.
# Submitted via: ExactAudioCopy v0.95a5
#
DISCID=c20f210d
DTITLE=Peter Green Splinter Group - Time Traders
DYEAR=2001
DGENRE=Blues
TTITLE0=Until The Well Runs Dry
TTITLE1=Real World
TTITLE2=Running after You
TTITLE3=Shadow on my Door
TTITLE4=Lies
TTITLE5=(Down the Road of) Temptation
TTITLE6=Downsize Blues (Repossess my Body)
TTITLE7=Feeling Good
TTITLE8=Time Keeps Slipping Away
TTITLE9=Wild Dogs
TTITLE10=Home
TTITLE11=Underway
TTITLE12=Uganda Woman
EXTD=
EXTT0=
EXTT1=
EXTT2=
EXTT3=
EXTT4=
EXTT5=
EXTT6=
EXTT7=
EXTT8=
EXTT9=
EXTT10=
EXTT11=
EXTT12=
PLAYORDER=
